<mxfile host="app.diagrams.net" modified="2023-03-30T09:22:53.145Z" agent="Mozilla/5.0 (Macintosh; Intel Mac OS X 10_15_7) AppleWebKit/537.36 (KHTML, like Gecko) Chrome/111.0.0.0 Safari/537.36" etag="lMM7H3qa7vsbDKFljwcM" version="21.1.0" type="device">
  <diagram name="Page-1" id="GU69xi_Er6Q73AgGZ8tF">
    <mxGraphModel dx="655" dy="263" grid="1" gridSize="10" guides="1" tooltips="1" connect="1" arrows="1" fold="1" page="1" pageScale="1" pageWidth="850" pageHeight="1100" math="0" shadow="0">
      <root>
        <mxCell id="0" />
        <mxCell id="1" parent="0" />
        <mxCell id="4nH8rsB8-XxNUxfwkSDK-8" value="" style="rounded=1;whiteSpace=wrap;html=1;fillColor=#f8cecc;strokeColor=#b85450;" parent="1" vertex="1">
          <mxGeometry x="70" y="30" width="650" height="200" as="geometry" />
        </mxCell>
        <mxCell id="4nH8rsB8-XxNUxfwkSDK-10" value="" style="rounded=1;whiteSpace=wrap;html=1;fillColor=#ffe6cc;strokeColor=#d79b00;" parent="1" vertex="1">
          <mxGeometry x="90" y="60" width="370" height="160" as="geometry" />
        </mxCell>
        <mxCell id="4nH8rsB8-XxNUxfwkSDK-1" value="Database" style="whiteSpace=wrap;html=1;aspect=fixed;" parent="1" vertex="1">
          <mxGeometry x="100" y="70" width="140" height="140" as="geometry" />
        </mxCell>
        <mxCell id="4nH8rsB8-XxNUxfwkSDK-2" value="Application Programming Interface (API)" style="whiteSpace=wrap;html=1;aspect=fixed;" parent="1" vertex="1">
          <mxGeometry x="330" y="80" width="120" height="120" as="geometry" />
        </mxCell>
        <mxCell id="4nH8rsB8-XxNUxfwkSDK-3" value="Front-End (website / app)" style="rounded=0;whiteSpace=wrap;html=1;" parent="1" vertex="1">
          <mxGeometry x="540" y="80" width="160" height="120" as="geometry" />
        </mxCell>
        <mxCell id="4nH8rsB8-XxNUxfwkSDK-4" value="" style="endArrow=classic;startArrow=classic;html=1;rounded=0;entryX=0;entryY=0.5;entryDx=0;entryDy=0;exitX=1;exitY=0.5;exitDx=0;exitDy=0;" parent="1" source="4nH8rsB8-XxNUxfwkSDK-1" target="4nH8rsB8-XxNUxfwkSDK-2" edge="1">
          <mxGeometry width="50" height="50" relative="1" as="geometry">
            <mxPoint x="260" y="320" as="sourcePoint" />
            <mxPoint x="310" y="270" as="targetPoint" />
          </mxGeometry>
        </mxCell>
        <mxCell id="4nH8rsB8-XxNUxfwkSDK-5" value="" style="endArrow=classic;startArrow=classic;html=1;rounded=0;entryX=0;entryY=0.5;entryDx=0;entryDy=0;exitX=1;exitY=0.5;exitDx=0;exitDy=0;" parent="1" source="4nH8rsB8-XxNUxfwkSDK-2" target="4nH8rsB8-XxNUxfwkSDK-3" edge="1">
          <mxGeometry width="50" height="50" relative="1" as="geometry">
            <mxPoint x="320" y="310" as="sourcePoint" />
            <mxPoint x="370" y="260" as="targetPoint" />
          </mxGeometry>
        </mxCell>
        <mxCell id="4nH8rsB8-XxNUxfwkSDK-6" value="Auto-generated API documentation" style="whiteSpace=wrap;html=1;aspect=fixed;" parent="1" vertex="1">
          <mxGeometry x="335" y="260" width="110" height="110" as="geometry" />
        </mxCell>
        <mxCell id="4nH8rsB8-XxNUxfwkSDK-7" value="" style="endArrow=classic;startArrow=classic;html=1;rounded=0;exitX=0.5;exitY=0;exitDx=0;exitDy=0;entryX=0.5;entryY=1;entryDx=0;entryDy=0;" parent="1" source="4nH8rsB8-XxNUxfwkSDK-6" target="4nH8rsB8-XxNUxfwkSDK-2" edge="1">
          <mxGeometry width="50" height="50" relative="1" as="geometry">
            <mxPoint x="380" y="230" as="sourcePoint" />
            <mxPoint x="430" y="180" as="targetPoint" />
          </mxGeometry>
        </mxCell>
        <mxCell id="4nH8rsB8-XxNUxfwkSDK-9" value="MoneyRobot" style="text;html=1;strokeColor=none;fillColor=none;align=center;verticalAlign=middle;whiteSpace=wrap;rounded=0;" parent="1" vertex="1">
          <mxGeometry x="360" y="30" width="60" height="30" as="geometry" />
        </mxCell>
        <mxCell id="4nH8rsB8-XxNUxfwkSDK-11" value="Database client" style="whiteSpace=wrap;html=1;aspect=fixed;" parent="1" vertex="1">
          <mxGeometry x="120" y="270" width="100" height="100" as="geometry" />
        </mxCell>
        <mxCell id="4nH8rsB8-XxNUxfwkSDK-12" value="" style="endArrow=classic;startArrow=classic;html=1;rounded=0;entryX=0.5;entryY=1;entryDx=0;entryDy=0;exitX=0.5;exitY=0;exitDx=0;exitDy=0;" parent="1" source="4nH8rsB8-XxNUxfwkSDK-11" target="4nH8rsB8-XxNUxfwkSDK-1" edge="1">
          <mxGeometry width="50" height="50" relative="1" as="geometry">
            <mxPoint x="60" y="280" as="sourcePoint" />
            <mxPoint x="110" y="230" as="targetPoint" />
          </mxGeometry>
        </mxCell>
      </root>
    </mxGraphModel>
  </diagram>
</mxfile>
